<?xml version="1.0" standalone="no"?>
<!DOCTYPE svg PUBLIC "-//W3C//DTD SVG 20010904//EN"
 "http://www.w3.org/TR/2001/REC-SVG-20010904/DTD/svg10.dtd">
<svg version="1.0" xmlns="http://www.w3.org/2000/svg"
 width="300.000000pt" height="300.000000pt" viewBox="0 0 300.000000 300.000000"
 preserveAspectRatio="xMidYMid meet">
<metadata>
Created by potrace 1.10, written by Peter Selinger 2001-2011
</metadata>
<g transform="translate(0.000000,300.000000) scale(0.100000,-0.100000)"
fill="#000000" stroke="none">
<path d="M1355 2993 c-201 -24 -375 -76 -544 -163 -411 -213 -697 -599 -788
-1065 -24 -125 -24 -405 0 -530 29 -148 74 -279 142 -413 316 -622 1021 -945
1696 -777 127 32 209 64 339 131 401 208 687 598 777 1059 25 128 24 396 -1
530 -135 721 -763 1242 -1486 1233 -58 0 -118 -3 -135 -5z m620 -1293 l-400
-400 -75 0 -75 0 -400 400 -400 400 875 0 875 0 -400 -400z m-1148 -497 l-277
-278 0 555 0 555 277 -278 278 -277 -278 -277z m1623 275 l0 -553 -277 277
-278 278 275 275 c151 151 276 275 277 275 2 0 3 -249 3 -552z m-1165 -178
l100 -100 115 0 115 0 102 102 103 103 253 -253 252 -252 -825 0 -825 0 250
250 c137 138 252 250 255 250 3 0 50 -45 105 -100z"/>
</g>
</svg>
