<?xml version="1.0" standalone="no"?>
<!DOCTYPE svg PUBLIC "-//W3C//DTD SVG 20010904//EN"
 "http://www.w3.org/TR/2001/REC-SVG-20010904/DTD/svg10.dtd">
<svg version="1.0" xmlns="http://www.w3.org/2000/svg"
 width="300.000000pt" height="300.000000pt" viewBox="0 0 300.000000 300.000000"
 preserveAspectRatio="xMidYMid meet">
<metadata>
Created by potrace 1.10, written by Peter Selinger 2001-2011
</metadata>
<g transform="translate(0.000000,300.000000) scale(0.100000,-0.100000)"
fill="#000000" stroke="none">
<path d="M2320 2263 c-178 -64 -302 -139 -459 -275 -32 -28 -53 -38 -77 -38
-34 0 -34 0 -34 -49 l0 -48 -164 -157 c-90 -86 -167 -156 -170 -156 -3 0 -6
92 -6 205 l0 205 -90 0 -90 0 0 -406 0 -406 50 44 c27 23 224 205 438 403
l390 360 -72 5 -71 5 75 54 c169 120 275 136 226 33 -39 -80 -150 -201 -480
-521 -293 -284 -521 -497 -611 -570 -217 -177 -385 -241 -385 -148 0 57 148
257 284 385 l67 62 -3 67 -3 67 -136 -134 c-218 -217 -348 -413 -357 -538 -4
-55 -2 -60 23 -80 37 -30 83 -28 182 7 108 37 207 95 351 203 109 82 120 88
165 88 l47 0 1 43 c0 40 4 46 95 127 52 47 99 85 103 85 5 0 48 -48 96 -107
48 -60 90 -108 94 -108 4 0 37 25 74 56 l67 57 -43 51 c-24 28 -69 82 -100
120 l-57 69 253 256 c256 260 379 406 433 517 36 74 38 129 5 155 -22 18 -77
24 -111 12z"/>
<path d="M1400 2235 c-309 -63 -563 -297 -642 -594 -24 -92 -28 -247 -10 -342
20 -98 22 -99 86 -51 52 40 55 44 48 75 -4 17 -7 79 -7 137 1 181 58 313 195
450 134 133 262 190 446 198 90 4 125 1 194 -17 l85 -21 50 50 c57 58 57 58
-43 90 -132 41 -277 50 -402 25z"/>
<path d="M2252 1667 l-53 -40 8 -46 c4 -25 8 -91 7 -146 -1 -81 -6 -115 -28
-180 -92 -270 -326 -448 -606 -462 -65 -3 -118 0 -169 11 l-73 15 -54 -47
c-30 -26 -54 -50 -54 -54 0 -13 132 -48 226 -59 243 -29 478 55 659 236 205
205 284 475 218 740 -8 33 -18 63 -21 66 -4 4 -31 -11 -60 -34z"/>
<path d="M1085 1098 c-48 -53 -99 -141 -93 -160 2 -6 36 17 76 52 71 61 72 62
72 111 0 27 -2 49 -4 49 -2 0 -25 -23 -51 -52z"/>
</g>
</svg>
